<svg version="1.2" viewBox="0 0 345.45 419.5" xmlns="http://www.w3.org/2000/svg">
 <path d="m90.909 72.727c-10.073 0-18.182 8.1091-18.182 18.182v163.64c0 10.073 8.1091 18.182 18.182 18.182h36.364v-145.45h72.727v-54.545zm127.27 0v200h36.364c10.073 0 18.182-8.1091 18.182-18.182v-163.64c0-10.073-8.1091-18.182-18.182-18.182zm-72.727 72.727v127.27h54.545v-127.27z" fill="#35bfa4" fill-rule="evenodd" stroke-linecap="round" stroke-linejoin="round" stroke-width="9.0909" style="paint-order:stroke fill markers"/>
 <path d="m186.49 290.67c-0.99287 4e-5 -1.8399 0.35046-2.5407 1.0513-0.70086 0.70088-1.0513 1.5479-1.0513 2.5407-1e-5 0.9929 0.35041 1.8399 1.0513 2.5407 0.70083 0.70088 1.5478 1.0513 2.5407 1.0513 0.99285 3e-5 1.8398-0.35039 2.5407-1.0513 0.70082-0.7008 1.0512-1.5478 1.0513-2.5407-1e-5 -0.99281-0.35044-1.8398-1.0513-2.5407-0.70086-0.70081-1.5479-1.0512-2.5407-1.0513zm0 9.4033c-0.83713 3e-5 -1.5571 0.30194-2.1606 0.9054-0.58404 0.58407-0.87636 1.3041-0.87635 2.1606v29.494c-1e-5 1.1097-0.21385 2.1507-0.64214 3.1241s-1.0123 1.8204-1.7521 2.5407c-0.72032 0.73977-1.5673 1.3142-2.5407 1.7231-0.9734 0.42829-2.0151 0.64213-3.1247 0.64214-0.87605-1e-5 -1.6062 0.28272-2.1903 0.8473-0.56457 0.58403-0.84671 1.3136-0.84671 2.1897 0 0.87605 0.28214 1.6062 0.84671 2.1903 0.58403 0.58402 1.3142 0.87635 2.1903 0.87636 1.9273-1e-5 3.7477-0.37979 5.4609-1.139 1.7132-0.7398 3.2119-1.7521 4.4968-3.037 1.2849-1.2849 2.2972-2.7842 3.037-4.4974 0.75923-1.7132 1.139-3.533 1.139-5.4603v-29.494c-2e-5 -0.85655-0.30192-1.5766-0.90541-2.1606-0.58405-0.60346-1.2945-0.90537-2.1316-0.9054zm-128.9 0.33347c-0.83712 4e-5 -1.5571 0.30194-2.1606 0.90541-0.58404 0.58407-0.87635 1.2945-0.87635 2.1316v26.603c0 0.85658 0.29231 1.5862 0.87635 2.1897 0.6035 0.58403 1.3337 0.87636 2.1903 0.87636 0.83711 0 1.5475-0.29233 2.1316-0.87636 0.60349-0.6035 0.9054-1.3331 0.9054-2.1897v-16.616c0-0.9539 0.1749-1.8494 0.52534-2.6866 0.36987-0.83709 0.86646-1.5667 1.4894-2.1897 0.64242-0.64241 1.3822-1.139 2.2193-1.4894 0.8371-0.36987 1.7326-0.55496 2.6866-0.55499 0.9539 3e-5 1.8494 0.18512 2.6866 0.55499 0.8371 0.36991 1.5673 0.86649 2.1903 1.4894 0.62296 0.62299 1.1189 1.3526 1.4888 2.1897 0.36987 0.83715 0.55497 1.7327 0.55499 2.6866v16.616c-1.9e-5 0.85658 0.2923 1.5862 0.87636 2.1897 0.60347 0.58403 1.3331 0.87636 2.1897 0.87636 0.83709 0 1.5481-0.29233 2.1322-0.87636 0.60347-0.6035 0.90478-1.3331 0.9048-2.1897v-16.616c-1.9e-5 -0.9539 0.17549-1.8494 0.52595-2.6866 0.36985-0.83709 0.86644-1.5667 1.4894-2.1897 0.6424-0.62295 1.3822-1.1195 2.2193-1.4894 0.83708-0.36987 1.7326-0.55496 2.6866-0.55499 0.97335 3e-5 1.8785 0.18512 2.7156 0.55499 0.85655 0.36991 1.5963 0.87608 2.2193 1.5185 0.62293 0.62298 1.1093 1.3532 1.4598 2.1903 0.36985 0.83714 0.55495 1.7225 0.55499 2.6569v16.616c-3.9e-5 0.85658 0.29228 1.5862 0.87636 2.1897 0.58399 0.58403 1.304 0.87636 2.1606 0.87636 0.83707 0 1.5475-0.29233 2.1316-0.87636 0.60345-0.6035 0.90536-1.3331 0.90541-2.1897v-16.616c-5e-5 -1.7715-0.35047-3.4458-1.0513-5.0227-0.68142-1.5963-1.6159-2.9783-2.8034-4.1464-1.1681-1.1875-2.55-2.122-4.1463-2.8034-1.5769-0.70081-3.2512-1.0512-5.0227-1.0513-3.9325 4e-5 -7.2523 1.5479-9.9583 4.6432-1.2849-1.5574-2.7836-2.7159-4.4968-3.4752-1.7132-0.77868-3.5432-1.168-5.4899-1.1681-2.6476 4e-5 -5.0131 0.6913-7.0962 2.0735-0.19469-0.62294-0.55469-1.1195-1.0803-1.4894-0.52565-0.38933-1.1294-0.584-1.8108-0.58404zm64.943 0c-4.5166 4e-5 -8.3712 1.5964-11.564 4.7891-3.1927 3.1927-4.7891 7.0474-4.7891 11.564 0 4.5166 1.5964 8.3712 4.7891 11.564 3.1927 3.1927 7.0474 4.7891 11.564 4.7891 1.9468 0 3.7767-0.31149 5.4899-0.93446 1.7131-0.62297 3.2999-1.5185 4.76-2.6866v0.58404c-3e-5 0.83711 0.29168 1.5571 0.87574 2.1606 0.60348 0.58403 1.3337 0.87636 2.1903 0.87636 0.83708 0 1.5475-0.29233 2.1316-0.87636 0.60346-0.6035 0.90537-1.3235 0.9054-2.1606v-13.316c-3e-5 -4.5165-1.5964-8.3712-4.7891-11.564-3.2317-3.1927-7.0863-4.789-11.564-4.7891zm25.053 0c-0.85659 4e-5 -1.5868 0.30194-2.1903 0.90541-0.58404 0.60353-0.87575 1.3235-0.87575 2.1606v26.574c0 0.85658 0.29171 1.5862 0.87575 2.1897 0.60349 0.58403 1.3337 0.87636 2.1903 0.87636 0.83711 0 1.5475-0.29233 2.1316-0.87636 0.60351-0.6035 0.90541-1.3331 0.90542-2.1897v-14.397c-1e-5 -1.2459 0.2336-2.4236 0.70084-3.5333 0.48668-1.1096 1.1486-2.083 1.9857-2.9202 0.8371-0.83709 1.8009-1.4894 2.8911-1.9567 1.1096-0.48666 2.2969-0.72986 3.5623-0.72989 1.2459 3e-5 2.4236 0.24323 3.5333 0.72989 1.1096 0.48672 2.0735 1.1486 2.8911 1.9857 0.83709 0.81767 1.499 1.7815 1.9857 2.8911 0.48666 1.1097 0.72986 2.2873 0.72989 3.5333v14.397c-3e-5 0.85658 0.29229 1.5862 0.87635 2.1897 0.60347 0.58403 1.3337 0.87636 2.1903 0.87636 0.83709 0 1.5475-0.29233 2.1316-0.87636 0.60347-0.6035 0.90538-1.3331 0.9054-2.1897v-14.397c-2e-5 -2.1025-0.40916-4.078-1.2268-5.9275-0.81768-1.8689-1.927-3.485-3.3287-4.8478-1.4017-1.3822-3.0274-2.4724-4.8768-3.2706-1.83-0.79815-3.7672-1.1971-5.8113-1.1971-3.5042 4e-5 -6.5508 1.0028-9.14 3.0079-1e-5 -0.79815-0.30191-1.499-0.90542-2.1025-0.58403-0.60347-1.2945-0.90537-2.1316-0.90541zm63.933 0c-4.5166 4e-5 -8.3712 1.5964-11.564 4.7891-3.1927 3.1927-4.7891 7.0474-4.7891 11.564 0 4.5166 1.5964 8.3712 4.7891 11.564 3.1927 3.1927 7.0474 4.7891 11.564 4.7891 1.9468 0 3.7767-0.31149 5.4899-0.93446 1.7131-0.62297 3.2999-1.5185 4.76-2.6866v0.58404c-4e-5 0.83711 0.29229 1.5571 0.87635 2.1606 0.60347 0.58403 1.3331 0.87636 2.1897 0.87636 0.83708 0 1.5481-0.29233 2.1322-0.87636 0.60346-0.6035 0.90477-1.3235 0.90481-2.1606v-13.316c-4e-5 -4.5165-1.5964-8.3712-4.7891-11.564-3.2317-3.1927-7.0863-4.789-11.564-4.7891zm25.054 0c-0.85659 4e-5 -1.5868 0.30194-2.1903 0.90541-0.58402 0.58407-0.87635 1.2945-0.87635 2.1316v26.632c0 0.83711 0.29233 1.5571 0.87635 2.1606 0.60351 0.58403 1.3337 0.87636 2.1903 0.87636 0.8371 0 1.5475-0.29233 2.1316-0.87636 0.6035-0.6035 0.9054-1.3235 0.9054-2.1606v-13.316c0-1.4211 0.26236-2.7545 0.78799-4.0005 0.5451-1.2459 1.2753-2.3265 2.1903-3.2416 0.93443-0.93443 2.0246-1.6646 3.2706-2.1903 1.2459-0.54507 2.5793-0.81762 4.0005-0.81765 1.4406 3e-5 2.7746 0.24323 4.0011 0.72989 0.48668 0.21417 0.91497 0.32139 1.2849 0.32138 0.42827 1e-5 0.82721-0.0779 1.1971-0.23362 0.36986-0.15572 0.69092-0.36956 0.9635-0.64214 0.27252-0.29198 0.48697-0.62324 0.64274-0.99316 0.17518-0.36986 0.26264-0.7688 0.26267-1.1971-3e-5 -0.83709-0.27257-1.5188-0.81766-2.0444-0.54512-0.5256-1.2364-0.93412-2.0735-1.2262-0.81768-0.31145-1.7228-0.5259-2.7156-0.64274-0.97342-0.11677-1.8887-0.17487-2.7453-0.17491-1.9468 4e-5 -3.7768 0.31152-5.4899 0.93446-1.7132 0.623-3.2994 1.5185-4.7594 2.6866v-0.58404c0-0.83708-0.3019-1.5475-0.9054-2.1316-0.58404-0.60347-1.2945-0.90537-2.1316-0.90541zm37.991 0c-4.5165 4e-5 -8.3712 1.5964-11.564 4.7891-3.1928 3.1927-4.7891 7.0474-4.7891 11.564 0 4.5166 1.5963 8.3712 4.7891 11.564 3.1927 3.1927 7.0474 4.7891 11.564 4.7891 4.4776 0 8.3322-1.5964 11.564-4.7891 3.1927-3.1538 4.789-7.0084 4.7891-11.564-0.0195-2.2582-0.42802-4.3512-1.2262-6.2785-0.77877-1.9273-1.9666-3.689-3.5629-5.2854-3.2317-3.1927-7.0863-4.789-11.564-4.7891zm-152.03 6.103c1.4211 3e-5 2.7545 0.27258 4.0005 0.81765 1.2459 0.54512 2.3265 1.2849 3.2415 2.2193 0.93443 0.93449 1.6646 2.0247 2.1903 3.2706 0.54507 1.2265 0.81762 2.5407 0.81765 3.9424-3e-5 1.4017-0.27258 2.7255-0.81765 3.9714-0.52566 1.2265-1.2559 2.3065-2.1903 3.2409-0.91501 0.93446-1.9956 1.6742-3.2415 2.2193-1.246 0.54511-2.5794 0.81827-4.0005 0.81826-1.4406 1e-5 -2.7842-0.27315-4.0302-0.81826-1.246-0.54509-2.326-1.2747-3.2409-2.1897-0.915-0.93445-1.6452-2.0246-2.1903-3.2706-0.52564-1.2459-0.78861-2.5697-0.7886-3.9714-1e-5 -1.4017 0.26296-2.7255 0.7886-3.9714 0.54508-1.2459 1.2753-2.3265 2.1903-3.2416 0.91498-0.93443 1.995-1.6742 3.2409-2.2193 1.2459-0.54507 2.5895-0.81762 4.0302-0.81765zm88.986 0c1.4211 3e-5 2.7551 0.27258 4.0011 0.81765 1.2459 0.54512 2.3259 1.2849 3.2409 2.2193 0.93443 0.93449 1.6646 2.0247 2.1903 3.2706 0.54508 1.2265 0.81762 2.5407 0.81766 3.9424-4e-5 1.4017-0.27258 2.7255-0.81766 3.9714-0.52565 1.2265-1.2558 2.3065-2.1903 3.2409-0.91501 0.93446-1.995 1.6742-3.2409 2.2193-1.246 0.54511-2.58 0.81827-4.0011 0.81826-1.4406 1e-5 -2.7836-0.27315-4.0296-0.81826-1.246-0.54509-2.3266-1.2747-3.2415-2.1897-0.915-0.93445-1.6452-2.0246-2.1903-3.2706-0.52564-1.2459-0.78801-2.5697-0.788-3.9714-1e-5 -1.4017 0.26236-2.7255 0.788-3.9714 0.54508-1.2459 1.2753-2.3265 2.1903-3.2416 0.91497-0.93443 1.9956-1.6742 3.2415-2.2193 1.2459-0.54507 2.5889-0.81762 4.0296-0.81765zm63.045 0c1.4211 3e-5 2.7551 0.27258 4.0011 0.81765 1.2459 0.54512 2.3259 1.2849 3.241 2.2193 0.93442 0.93449 1.6646 2.0247 2.1903 3.2706 0.54504 1.2265 0.81761 2.5407 0.81764 3.9424-3e-5 1.4017-0.2726 2.7255-0.81764 3.9714-0.52565 1.2265-1.2559 2.3065-2.1903 3.2409-0.91502 0.93446-1.995 1.6742-3.241 2.2193-1.246 0.54511-2.58 0.81827-4.0011 0.81826-1.4406 1e-5 -2.7836-0.27315-4.0295-0.81826-1.246-0.54509-2.3266-1.2747-3.2415-2.1897-0.91499-0.93445-1.6452-2.0246-2.1903-3.2706-0.52564-1.2459-0.78804-2.5697-0.78801-3.9714-3e-5 -1.4017 0.26237-2.7255 0.78801-3.9714 0.54509-1.2459 1.2753-2.3265 2.1903-3.2416 0.91496-0.93443 1.9956-1.6742 3.2415-2.2193 1.2459-0.54507 2.5889-0.81762 4.0295-0.81765z" fill="#333"/>
 <path d="m305.01 284.8q3.0587 0 5.6268 1.5293 2.597 1.5005 4.0975 4.0975 1.5293 2.5681 1.5293 5.6268 0 3.1164-1.5293 5.7134-1.5294 2.597-4.1263 4.0975-2.5681 1.4716-5.598 1.4716-3.0875 0-5.6845-1.4716-2.5681-1.5005-4.0975-4.0686-1.5005-2.597-1.5005-5.7422 0-3.0587 1.5005-5.6268 1.5005-2.597 4.0686-4.0975 2.597-1.5293 5.7134-1.5293zm-0.0577 20.17q2.4239 0 4.4726-1.2119 2.0776-1.2119 3.2607-3.2607 1.2119-2.0487 1.2119-4.4726 0-2.4238-1.2119-4.4726-1.2119-2.0487-3.2607-3.2607-2.0487-1.2119-4.4726-1.2119-2.4238 0-4.4726 1.2119-2.0487 1.2119-3.2606 3.2607-1.212 2.0487-1.212 4.4726 0 2.4239 1.1831 4.4726 1.2119 2.0487 3.2607 3.2607 2.0487 1.2119 4.5014 1.2119zm4.7323-4.1263q0.23086 0.40398 0.23086 0.75025 0 0.40397-0.28857 0.66367-0.28853 0.2597-0.77908 0.2597-0.34627 0-0.63483-0.14428-0.28856-0.14427-0.43281-0.37512l-2.6547-4.4726h-2.0776v3.8955q0 0.49055-0.3174 0.80796-0.28856 0.28855-0.80795 0.28855t-0.83682-0.28855q-0.3174-0.31741-0.3174-0.80796v-11.311q0-0.49055 0.34627-0.7791 0.34627-0.31741 0.89452-0.31741h2.8567q2.0776 0 3.4049 1.1831 1.3562 1.1831 1.3562 3.0298 0 1.2119-0.60596 2.193-0.60596 0.95223-1.6447 1.5293zm-6.6368-5.3382h1.991q1.0388 0 1.6448-0.60597 0.6348-0.63482 0.6348-1.6736 0-1.0388-0.6348-1.6159-0.60597-0.57711-1.6448-0.57711h-1.991z" baseline-shift="super" fill="#333" stroke-width="1.1098"/>
</svg>
